<svg width="20" height="20" viewBox="0 0 20 20" fill="none" xmlns="http://www.w3.org/2000/svg">
<g id="CaretDownFill">
<path id="Vector" d="M9.0587 13.925L3.0637 7.0725C2.3562 6.26625 2.9312 5 4.00495 5H15.995C16.2353 4.99979 16.4705 5.06886 16.6726 5.19893C16.8747 5.32899 17.0349 5.51455 17.1343 5.73337C17.2336 5.95219 17.2677 6.195 17.2326 6.43272C17.1975 6.67045 17.0946 6.89301 16.9362 7.07375L10.9412 13.9237C10.8239 14.058 10.6792 14.1656 10.5168 14.2393C10.3545 14.3131 10.1783 14.3512 9.99995 14.3512C9.82165 14.3512 9.64541 14.3131 9.48307 14.2393C9.32072 14.1656 9.17603 14.058 9.0587 13.9237V13.925Z" fill="white"/>
</g>
</svg>
