<svg width="31" height="30" viewBox="0 0 31 30" fill="none" xmlns="http://www.w3.org/2000/svg">
<g id="Facebook" clip-path="url(#clip0_41_108)">
<path id="Vector" d="M30.5 15.0918C30.5 6.75555 23.7838 -0.00195312 15.5 -0.00195312C7.21253 -7.81249e-05 0.496277 6.75555 0.496277 15.0937C0.496277 22.6255 5.98253 28.8693 13.1525 30.0018V19.4549H9.34628V15.0937H13.1563V11.7655C13.1563 7.98367 15.3969 5.89492 18.8225 5.89492C20.465 5.89492 22.1806 6.1893 22.1806 6.1893V9.9018H20.2888C18.4269 9.9018 17.8457 11.0662 17.8457 12.2605V15.0918H22.0044L21.3407 19.453H17.8438V29.9999C25.0138 28.8674 30.5 22.6237 30.5 15.0918Z" fill="white"/>
</g>
<defs>
<clipPath id="clip0_41_108">
<rect width="30" height="30" fill="white" transform="translate(0.5)"/>
</clipPath>
</defs>
</svg>
