<svg width="10" height="20" viewBox="0 0 10 20" fill="none" xmlns="http://www.w3.org/2000/svg">
<g id="facebook logo" clip-path="url(#clip0_2_46)">
<path id="Vector" d="M10.385 0.144168V3.3175H8.49752C8.43169 3.30833 8.35502 3.30333 8.27752 3.30333C7.82585 3.30333 7.41419 3.4725 7.10169 3.75167L7.10335 3.75C6.87419 4.07 6.73752 4.46917 6.73752 4.90083C6.73752 4.9525 6.73919 5.00417 6.74335 5.055V5.04833V7.32H10.2675L9.80085 10.8783H6.74835V20H3.06752V10.8775H0.000854492V7.32H3.06752V4.69917C3.06169 4.61417 3.05835 4.51417 3.05835 4.41417C3.05835 3.1825 3.53752 2.0625 4.31919 1.23083L4.31669 1.23333C5.12669 0.466668 6.22335 -0.00416565 7.42919 -0.00416565C7.50419 -0.00416565 7.57919 -0.00249898 7.65419 0.00166768H7.64335C7.74169 1.01747e-06 7.85669 -0.000832316 7.97252 -0.000832316C8.82252 -0.000832316 9.66002 0.052501 10.4817 0.155834L10.3842 0.145834L10.385 0.144168Z" fill="#1B74E4"/>
</g>
<defs>
<clipPath id="clip0_2_46">
<rect width="10" height="20" fill="white"/>
</clipPath>
</defs>
</svg>
