<svg width="98" height="30" viewBox="0 0 98 30" fill="none" xmlns="http://www.w3.org/2000/svg">
<g id="GSPH">
<mask id="path-1-outside-1_41_28" maskUnits="userSpaceOnUse" x="0" y="0.463989" width="98" height="30" fill="black">
<rect fill="white" y="0.463989" width="98" height="30"/>
<path d="M24.112 25.584C23.8 25.92 23.308 26.268 22.636 26.628C21.964 26.964 21.184 27.276 20.296 27.564C19.432 27.852 18.544 28.08 17.632 28.248C16.72 28.44 15.856 28.536 15.04 28.536C12.88 28.536 10.936 28.224 9.208 27.6C7.48 26.952 6.004 26.064 4.78 24.936C3.556 23.784 2.62 22.428 1.972 20.868C1.324 19.308 1 17.604 1 15.756C1 13.332 1.36 11.232 2.08 9.45599C2.824 7.65599 3.82 6.16799 5.068 4.99199C6.34 3.79199 7.792 2.90399 9.424 2.32799C11.08 1.75199 12.808 1.46399 14.608 1.46399C16.312 1.46399 17.872 1.65599 19.288 2.03999C20.704 2.39999 21.904 2.85599 22.888 3.40799L21.196 8.26799C20.764 8.02799 20.188 7.78799 19.468 7.54799C18.748 7.30799 18.016 7.11599 17.272 6.97199C16.528 6.80399 15.868 6.71999 15.292 6.71999C13.852 6.71999 12.58 6.89999 11.476 7.25999C10.372 7.61999 9.436 8.15999 8.668 8.87999C7.924 9.59999 7.36 10.5 6.976 11.58C6.592 12.636 6.4 13.872 6.4 15.288C6.4 16.536 6.616 17.664 7.048 18.672C7.48 19.656 8.08 20.496 8.848 21.192C9.64 21.888 10.564 22.416 11.62 22.776C12.7 23.136 13.888 23.316 15.184 23.316C15.928 23.316 16.612 23.268 17.236 23.172C17.86 23.052 18.388 22.872 18.82 22.632V19.428H14.248V14.388H24.112V25.584Z"/>
<path d="M44.1899 8.15999C43.1819 7.60799 42.1499 7.15199 41.0939 6.79199C40.0619 6.43199 39.0899 6.25199 38.1779 6.25199C37.0499 6.25199 36.1619 6.47999 35.5139 6.93599C34.8659 7.39199 34.5419 8.07599 34.5419 8.98799C34.5419 9.61199 34.7819 10.176 35.2619 10.68C35.7659 11.16 36.4019 11.592 37.1699 11.976C37.9619 12.36 38.7779 12.708 39.6179 13.02C40.3859 13.308 41.1419 13.656 41.8859 14.064C42.6539 14.448 43.3379 14.94 43.9379 15.54C44.5379 16.116 45.0179 16.848 45.3779 17.736C45.7379 18.6 45.9179 19.668 45.9179 20.94C45.9179 22.284 45.5699 23.532 44.8739 24.684C44.1779 25.836 43.1579 26.772 41.8139 27.492C40.4699 28.188 38.8139 28.536 36.8459 28.536C35.8379 28.536 34.8059 28.44 33.7499 28.248C32.7179 28.032 31.6979 27.72 30.6899 27.312C29.6819 26.88 28.7099 26.34 27.7739 25.692L30.0779 21.624C30.7019 22.08 31.3739 22.488 32.0939 22.848C32.8379 23.184 33.5819 23.448 34.3259 23.64C35.0699 23.832 35.7539 23.928 36.3779 23.928C37.0019 23.928 37.6259 23.844 38.2499 23.676C38.8979 23.484 39.4259 23.172 39.8339 22.74C40.2659 22.308 40.4819 21.708 40.4819 20.94C40.4819 20.412 40.3019 19.932 39.9419 19.5C39.6059 19.068 39.1379 18.672 38.5379 18.312C37.9619 17.952 37.3259 17.64 36.6299 17.376C35.8139 17.064 34.9739 16.704 34.1099 16.296C33.2459 15.888 32.4299 15.396 31.6619 14.82C30.9179 14.22 30.3059 13.488 29.8259 12.624C29.3699 11.736 29.1419 10.656 29.1419 9.38399C29.1419 7.84799 29.4779 6.51599 30.1499 5.38799C30.8459 4.25999 31.8179 3.37199 33.0659 2.72399C34.3139 2.05199 35.7539 1.67999 37.3859 1.60799C39.5219 1.60799 41.2499 1.85999 42.5699 2.36399C43.9139 2.86799 45.1139 3.46799 46.1699 4.16399L44.1899 8.15999Z"/>
<path d="M59.0582 1.75199C61.2422 1.75199 63.0902 2.12399 64.6022 2.86799C66.1142 3.58799 67.2662 4.61999 68.0582 5.96399C68.8502 7.28399 69.2462 8.85599 69.2462 10.68C69.2462 11.76 69.0782 12.852 68.7422 13.956C68.4302 15.036 67.9142 16.02 67.1942 16.908C66.4982 17.796 65.5502 18.516 64.3502 19.068C63.1742 19.596 61.7222 19.86 59.9942 19.86H56.2502V28.248H51.0302V1.75199H59.0582ZM59.9582 14.784C60.7502 14.784 61.4102 14.652 61.9382 14.388C62.4662 14.1 62.8742 13.752 63.1622 13.344C63.4742 12.912 63.6902 12.468 63.8102 12.012C63.9542 11.556 64.0262 11.16 64.0262 10.824C64.0262 10.56 63.9782 10.212 63.8822 9.77999C63.8102 9.32399 63.6422 8.86799 63.3782 8.41199C63.1142 7.95599 62.7062 7.57199 62.1542 7.25999C61.6262 6.94799 60.9062 6.79199 59.9942 6.79199H56.2502V14.784H59.9582Z"/>
<path d="M96.2009 1.75199V28.248H90.9809V17.484H79.1369V28.248H73.9169V1.75199H79.1369V12.444H90.9809V1.75199H96.2009Z"/>
</mask>
<path d="M24.112 25.584C23.8 25.92 23.308 26.268 22.636 26.628C21.964 26.964 21.184 27.276 20.296 27.564C19.432 27.852 18.544 28.08 17.632 28.248C16.72 28.44 15.856 28.536 15.04 28.536C12.88 28.536 10.936 28.224 9.208 27.6C7.48 26.952 6.004 26.064 4.78 24.936C3.556 23.784 2.62 22.428 1.972 20.868C1.324 19.308 1 17.604 1 15.756C1 13.332 1.36 11.232 2.08 9.45599C2.824 7.65599 3.82 6.16799 5.068 4.99199C6.34 3.79199 7.792 2.90399 9.424 2.32799C11.08 1.75199 12.808 1.46399 14.608 1.46399C16.312 1.46399 17.872 1.65599 19.288 2.03999C20.704 2.39999 21.904 2.85599 22.888 3.40799L21.196 8.26799C20.764 8.02799 20.188 7.78799 19.468 7.54799C18.748 7.30799 18.016 7.11599 17.272 6.97199C16.528 6.80399 15.868 6.71999 15.292 6.71999C13.852 6.71999 12.58 6.89999 11.476 7.25999C10.372 7.61999 9.436 8.15999 8.668 8.87999C7.924 9.59999 7.36 10.5 6.976 11.58C6.592 12.636 6.4 13.872 6.4 15.288C6.4 16.536 6.616 17.664 7.048 18.672C7.48 19.656 8.08 20.496 8.848 21.192C9.64 21.888 10.564 22.416 11.62 22.776C12.7 23.136 13.888 23.316 15.184 23.316C15.928 23.316 16.612 23.268 17.236 23.172C17.86 23.052 18.388 22.872 18.82 22.632V19.428H14.248V14.388H24.112V25.584Z" fill="white"/>
<path d="M44.1899 8.15999C43.1819 7.60799 42.1499 7.15199 41.0939 6.79199C40.0619 6.43199 39.0899 6.25199 38.1779 6.25199C37.0499 6.25199 36.1619 6.47999 35.5139 6.93599C34.8659 7.39199 34.5419 8.07599 34.5419 8.98799C34.5419 9.61199 34.7819 10.176 35.2619 10.68C35.7659 11.16 36.4019 11.592 37.1699 11.976C37.9619 12.36 38.7779 12.708 39.6179 13.02C40.3859 13.308 41.1419 13.656 41.8859 14.064C42.6539 14.448 43.3379 14.94 43.9379 15.54C44.5379 16.116 45.0179 16.848 45.3779 17.736C45.7379 18.6 45.9179 19.668 45.9179 20.94C45.9179 22.284 45.5699 23.532 44.8739 24.684C44.1779 25.836 43.1579 26.772 41.8139 27.492C40.4699 28.188 38.8139 28.536 36.8459 28.536C35.8379 28.536 34.8059 28.44 33.7499 28.248C32.7179 28.032 31.6979 27.72 30.6899 27.312C29.6819 26.88 28.7099 26.34 27.7739 25.692L30.0779 21.624C30.7019 22.08 31.3739 22.488 32.0939 22.848C32.8379 23.184 33.5819 23.448 34.3259 23.64C35.0699 23.832 35.7539 23.928 36.3779 23.928C37.0019 23.928 37.6259 23.844 38.2499 23.676C38.8979 23.484 39.4259 23.172 39.8339 22.74C40.2659 22.308 40.4819 21.708 40.4819 20.94C40.4819 20.412 40.3019 19.932 39.9419 19.5C39.6059 19.068 39.1379 18.672 38.5379 18.312C37.9619 17.952 37.3259 17.64 36.6299 17.376C35.8139 17.064 34.9739 16.704 34.1099 16.296C33.2459 15.888 32.4299 15.396 31.6619 14.82C30.9179 14.22 30.3059 13.488 29.8259 12.624C29.3699 11.736 29.1419 10.656 29.1419 9.38399C29.1419 7.84799 29.4779 6.51599 30.1499 5.38799C30.8459 4.25999 31.8179 3.37199 33.0659 2.72399C34.3139 2.05199 35.7539 1.67999 37.3859 1.60799C39.5219 1.60799 41.2499 1.85999 42.5699 2.36399C43.9139 2.86799 45.1139 3.46799 46.1699 4.16399L44.1899 8.15999Z" fill="white"/>
<path d="M59.0582 1.75199C61.2422 1.75199 63.0902 2.12399 64.6022 2.86799C66.1142 3.58799 67.2662 4.61999 68.0582 5.96399C68.8502 7.28399 69.2462 8.85599 69.2462 10.68C69.2462 11.76 69.0782 12.852 68.7422 13.956C68.4302 15.036 67.9142 16.02 67.1942 16.908C66.4982 17.796 65.5502 18.516 64.3502 19.068C63.1742 19.596 61.7222 19.86 59.9942 19.86H56.2502V28.248H51.0302V1.75199H59.0582ZM59.9582 14.784C60.7502 14.784 61.4102 14.652 61.9382 14.388C62.4662 14.1 62.8742 13.752 63.1622 13.344C63.4742 12.912 63.6902 12.468 63.8102 12.012C63.9542 11.556 64.0262 11.16 64.0262 10.824C64.0262 10.56 63.9782 10.212 63.8822 9.77999C63.8102 9.32399 63.6422 8.86799 63.3782 8.41199C63.1142 7.95599 62.7062 7.57199 62.1542 7.25999C61.6262 6.94799 60.9062 6.79199 59.9942 6.79199H56.2502V14.784H59.9582Z" fill="white"/>
<path d="M96.2009 1.75199V28.248H90.9809V17.484H79.1369V28.248H73.9169V1.75199H79.1369V12.444H90.9809V1.75199H96.2009Z" fill="white"/>
<path d="M24.112 25.584C23.8 25.92 23.308 26.268 22.636 26.628C21.964 26.964 21.184 27.276 20.296 27.564C19.432 27.852 18.544 28.08 17.632 28.248C16.72 28.44 15.856 28.536 15.04 28.536C12.88 28.536 10.936 28.224 9.208 27.6C7.48 26.952 6.004 26.064 4.78 24.936C3.556 23.784 2.62 22.428 1.972 20.868C1.324 19.308 1 17.604 1 15.756C1 13.332 1.36 11.232 2.08 9.45599C2.824 7.65599 3.82 6.16799 5.068 4.99199C6.34 3.79199 7.792 2.90399 9.424 2.32799C11.08 1.75199 12.808 1.46399 14.608 1.46399C16.312 1.46399 17.872 1.65599 19.288 2.03999C20.704 2.39999 21.904 2.85599 22.888 3.40799L21.196 8.26799C20.764 8.02799 20.188 7.78799 19.468 7.54799C18.748 7.30799 18.016 7.11599 17.272 6.97199C16.528 6.80399 15.868 6.71999 15.292 6.71999C13.852 6.71999 12.58 6.89999 11.476 7.25999C10.372 7.61999 9.436 8.15999 8.668 8.87999C7.924 9.59999 7.36 10.5 6.976 11.58C6.592 12.636 6.4 13.872 6.4 15.288C6.4 16.536 6.616 17.664 7.048 18.672C7.48 19.656 8.08 20.496 8.848 21.192C9.64 21.888 10.564 22.416 11.62 22.776C12.7 23.136 13.888 23.316 15.184 23.316C15.928 23.316 16.612 23.268 17.236 23.172C17.86 23.052 18.388 22.872 18.82 22.632V19.428H14.248V14.388H24.112V25.584Z" stroke="#195C81" stroke-width="2" mask="url(#path-1-outside-1_41_28)"/>
<path d="M44.1899 8.15999C43.1819 7.60799 42.1499 7.15199 41.0939 6.79199C40.0619 6.43199 39.0899 6.25199 38.1779 6.25199C37.0499 6.25199 36.1619 6.47999 35.5139 6.93599C34.8659 7.39199 34.5419 8.07599 34.5419 8.98799C34.5419 9.61199 34.7819 10.176 35.2619 10.68C35.7659 11.16 36.4019 11.592 37.1699 11.976C37.9619 12.36 38.7779 12.708 39.6179 13.02C40.3859 13.308 41.1419 13.656 41.8859 14.064C42.6539 14.448 43.3379 14.94 43.9379 15.54C44.5379 16.116 45.0179 16.848 45.3779 17.736C45.7379 18.6 45.9179 19.668 45.9179 20.94C45.9179 22.284 45.5699 23.532 44.8739 24.684C44.1779 25.836 43.1579 26.772 41.8139 27.492C40.4699 28.188 38.8139 28.536 36.8459 28.536C35.8379 28.536 34.8059 28.44 33.7499 28.248C32.7179 28.032 31.6979 27.72 30.6899 27.312C29.6819 26.88 28.7099 26.34 27.7739 25.692L30.0779 21.624C30.7019 22.08 31.3739 22.488 32.0939 22.848C32.8379 23.184 33.5819 23.448 34.3259 23.64C35.0699 23.832 35.7539 23.928 36.3779 23.928C37.0019 23.928 37.6259 23.844 38.2499 23.676C38.8979 23.484 39.4259 23.172 39.8339 22.74C40.2659 22.308 40.4819 21.708 40.4819 20.94C40.4819 20.412 40.3019 19.932 39.9419 19.5C39.6059 19.068 39.1379 18.672 38.5379 18.312C37.9619 17.952 37.3259 17.64 36.6299 17.376C35.8139 17.064 34.9739 16.704 34.1099 16.296C33.2459 15.888 32.4299 15.396 31.6619 14.82C30.9179 14.22 30.3059 13.488 29.8259 12.624C29.3699 11.736 29.1419 10.656 29.1419 9.38399C29.1419 7.84799 29.4779 6.51599 30.1499 5.38799C30.8459 4.25999 31.8179 3.37199 33.0659 2.72399C34.3139 2.05199 35.7539 1.67999 37.3859 1.60799C39.5219 1.60799 41.2499 1.85999 42.5699 2.36399C43.9139 2.86799 45.1139 3.46799 46.1699 4.16399L44.1899 8.15999Z" stroke="#195C81" stroke-width="2" mask="url(#path-1-outside-1_41_28)"/>
<path d="M59.0582 1.75199C61.2422 1.75199 63.0902 2.12399 64.6022 2.86799C66.1142 3.58799 67.2662 4.61999 68.0582 5.96399C68.8502 7.28399 69.2462 8.85599 69.2462 10.68C69.2462 11.76 69.0782 12.852 68.7422 13.956C68.4302 15.036 67.9142 16.02 67.1942 16.908C66.4982 17.796 65.5502 18.516 64.3502 19.068C63.1742 19.596 61.7222 19.86 59.9942 19.86H56.2502V28.248H51.0302V1.75199H59.0582ZM59.9582 14.784C60.7502 14.784 61.4102 14.652 61.9382 14.388C62.4662 14.1 62.8742 13.752 63.1622 13.344C63.4742 12.912 63.6902 12.468 63.8102 12.012C63.9542 11.556 64.0262 11.16 64.0262 10.824C64.0262 10.56 63.9782 10.212 63.8822 9.77999C63.8102 9.32399 63.6422 8.86799 63.3782 8.41199C63.1142 7.95599 62.7062 7.57199 62.1542 7.25999C61.6262 6.94799 60.9062 6.79199 59.9942 6.79199H56.2502V14.784H59.9582Z" stroke="#195C81" stroke-width="2" mask="url(#path-1-outside-1_41_28)"/>
<path d="M96.2009 1.75199V28.248H90.9809V17.484H79.1369V28.248H73.9169V1.75199H79.1369V12.444H90.9809V1.75199H96.2009Z" stroke="#195C81" stroke-width="2" mask="url(#path-1-outside-1_41_28)"/>
</g>
</svg>
