<svg width="20" height="20" viewBox="0 0 20 20" fill="none" xmlns="http://www.w3.org/2000/svg">
<g id="Group">
<path id="Vector" d="M10.0087 4.90478C9.83285 4.90478 9.6589 4.91375 9.4875 4.93131C9.3161 4.94886 9.14708 4.97488 8.98094 5.00903C8.8148 5.04318 8.6516 5.08547 8.49168 5.13538L8.02228 5.30774L7.57537 5.52353L7.15364 5.78015L6.75959 6.07488L6.39598 6.40518L6.06536 6.76847L5.77031 7.16207L5.51337 7.58342L5.29745 8.02981C5.23254 8.1825 5.17481 8.33903 5.12483 8.49883C5.07486 8.65863 5.03257 8.82175 4.99835 8.9877C4.96414 9.15365 4.93813 9.32249 4.92051 9.49375C4.90289 9.66502 4.89404 9.83879 4.89404 10.0145C4.89404 10.1902 4.90301 10.3639 4.92051 10.5352C4.9379 10.7051 4.96388 10.874 4.99835 11.0413C5.03257 11.2079 5.07486 11.3704 5.12483 11.5302C5.17481 11.69 5.23248 11.8464 5.29745 11.9992L5.51337 12.4456L5.77031 12.8669L6.06536 13.2605L6.39598 13.6238L6.75959 13.9541L7.15364 14.2489L7.57537 14.5055L8.02228 14.7213L8.49168 14.8936L8.98094 15.02C9.14838 15.0544 9.31744 15.0804 9.4875 15.0978C9.66068 15.1154 9.83465 15.1243 10.0087 15.1242C10.1846 15.1242 10.3586 15.1153 10.5299 15.0978C10.7 15.0804 10.869 15.0544 11.0365 15.02L11.5258 14.8936L11.9952 14.7213L12.442 14.5055L12.8638 14.2489L13.2579 13.9541L13.6216 13.6238L13.9522 13.2605L14.2472 12.8669L14.5042 12.4456L14.7201 11.9992L14.8927 11.5302C14.9427 11.3704 14.985 11.2073 15.0192 11.0413L15.097 10.5351C15.1146 10.3639 15.1236 10.1901 15.1236 10.0144C15.1236 9.83872 15.1146 9.66496 15.097 9.49369C15.0796 9.3238 15.0537 9.1549 15.0192 8.98764C14.985 8.82105 14.9427 8.65863 14.8927 8.49876L14.7201 8.02975L14.5042 7.58335L14.2472 7.16201L13.9522 6.76841L13.6216 6.40511L13.2579 6.07482L12.8638 5.78008L12.442 5.52347L11.9952 5.30767L11.5258 5.13532L11.0365 5.00896L10.5299 4.93124C10.3567 4.91356 10.1828 4.9047 10.0087 4.90472V4.90478ZM10.0087 6.66845C10.125 6.66845 10.2398 6.67422 10.3528 6.68563L10.686 6.73605L11.0078 6.81806L11.316 6.93L11.609 7.07032L11.8845 7.23723L12.1421 7.42926L12.3796 7.64467L12.5952 7.88187L12.7874 8.13919L12.9545 8.41508L13.0948 8.7079C13.137 8.80811 13.1744 8.91082 13.2069 9.01583C13.2395 9.12085 13.2668 9.22817 13.289 9.33748C13.3111 9.44679 13.3274 9.55802 13.3394 9.67098L13.3565 10.0148C13.3565 10.131 13.3508 10.2456 13.3394 10.3587C13.328 10.4717 13.3112 10.5829 13.289 10.6922C13.2667 10.8014 13.2393 10.9087 13.2069 11.0138L13.0948 11.3218L12.9545 11.6146L12.7874 11.8904L12.5952 12.1478L12.3796 12.385L12.1421 12.6004L11.8845 12.7924L11.609 12.9593L11.316 13.0997L11.0078 13.2116L10.686 13.2936L10.3528 13.344C10.2385 13.3554 10.1236 13.3612 10.0087 13.3611C9.89372 13.3612 9.77885 13.3554 9.66447 13.344L9.33129 13.2936C9.22192 13.2714 9.11453 13.244 9.00939 13.2116L8.7012 13.0997L8.40819 12.9593L8.13268 12.7924L7.8751 12.6004L7.63765 12.385L7.42204 12.1478L7.22982 11.8904L7.06272 11.6146L6.9224 11.3218L6.81027 11.0138L6.72826 10.6922L6.67783 10.3587C6.66637 10.2444 6.66064 10.1296 6.66066 10.0148C6.66064 9.89997 6.66637 9.78522 6.67783 9.67098C6.68918 9.55802 6.70603 9.44672 6.72826 9.33748C6.75027 9.22899 6.77767 9.12166 6.81034 9.0159L6.92247 8.70796L7.06279 8.41515L7.22989 8.13925L7.42211 7.88193L7.63771 7.64473L7.87517 7.42932L8.13274 7.23729L8.40825 7.07038L8.70126 6.93006C8.80211 6.88771 8.90499 6.85036 9.00952 6.81813L9.33142 6.73612C9.44079 6.71395 9.55215 6.69703 9.6646 6.68569C9.77897 6.67423 9.89385 6.6685 10.0088 6.66852L10.0087 6.66845Z" fill="url(#paint0_radial_2_22)"/>
<path id="Vector_2" d="M15.3308 3.45123C15.2902 3.45123 15.2496 3.45329 15.2092 3.45738C15.1688 3.46146 15.1286 3.46758 15.0888 3.4757C15.049 3.48382 15.0097 3.49393 14.9709 3.50601C14.9321 3.51809 14.8939 3.53212 14.8565 3.54804C14.8191 3.56398 14.7825 3.58179 14.7469 3.60141C14.7112 3.62099 14.6766 3.64236 14.6431 3.66542C14.6095 3.68851 14.5772 3.71327 14.5461 3.73962C14.5151 3.76594 14.4853 3.7938 14.4571 3.82311C14.4288 3.85243 14.4019 3.88316 14.3767 3.91518C14.3515 3.9472 14.3278 3.98048 14.3059 4.01488C14.284 4.04925 14.2638 4.0847 14.2454 4.12111C14.2269 4.15754 14.2103 4.19488 14.1956 4.23298C14.1809 4.27108 14.1681 4.30989 14.1572 4.34927C14.1463 4.38865 14.1374 4.42856 14.1305 4.46883C14.1236 4.5091 14.1187 4.54969 14.1159 4.59044C14.1138 4.61932 14.1128 4.64825 14.1128 4.6772C14.1128 4.71809 14.1148 4.75895 14.1189 4.79964C14.1229 4.84031 14.129 4.88075 14.1371 4.9208C14.1451 4.96086 14.1552 5.00049 14.1672 5.03953C14.1792 5.07859 14.1931 5.11702 14.209 5.15467C14.2248 5.19234 14.2425 5.22918 14.262 5.26507C14.2814 5.30095 14.3027 5.33583 14.3256 5.36957C14.3485 5.40329 14.3731 5.43584 14.3993 5.46709C14.4254 5.49836 14.4531 5.5283 14.4822 5.55679C14.5114 5.58526 14.5419 5.61225 14.5737 5.63765C14.6056 5.66307 14.6386 5.68687 14.6728 5.70897C14.707 5.73106 14.7422 5.75142 14.7784 5.76996C14.8146 5.78852 14.8517 5.80524 14.8895 5.82007C14.9274 5.83488 14.9659 5.84777 15.0051 5.8587C15.0442 5.86962 15.0838 5.87856 15.1239 5.88549C15.1639 5.89244 15.2042 5.89738 15.2447 5.90029C15.2734 5.90234 15.3021 5.90336 15.3309 5.90336C15.3715 5.90338 15.4121 5.90134 15.4525 5.89728C15.4929 5.89319 15.5331 5.88708 15.5729 5.87895C15.6127 5.87083 15.6521 5.86072 15.6908 5.84864C15.7296 5.83656 15.7678 5.82253 15.8052 5.80661C15.8426 5.79069 15.8792 5.7729 15.9148 5.7533C15.9505 5.7337 15.9851 5.71232 16.0186 5.68923C16.0522 5.66616 16.0845 5.64142 16.1156 5.6151C16.1466 5.58876 16.1764 5.56087 16.2046 5.53155C16.2329 5.50222 16.2598 5.47149 16.285 5.43947C16.3102 5.40745 16.3339 5.37418 16.3558 5.33978C16.3777 5.30538 16.3979 5.26991 16.4163 5.23348C16.4348 5.19705 16.4514 5.15971 16.4661 5.12161C16.4808 5.08351 16.4937 5.0447 16.5045 5.00532C16.5154 4.96593 16.5243 4.92603 16.5312 4.88576C16.5381 4.84549 16.543 4.8049 16.5458 4.76414C16.5479 4.73527 16.5489 4.70634 16.5489 4.67739C16.5489 4.63652 16.5469 4.59568 16.5428 4.55501C16.5388 4.51434 16.5327 4.47391 16.5246 4.43385C16.5166 4.39379 16.5065 4.35417 16.4945 4.31512C16.4825 4.27606 16.4686 4.23764 16.4527 4.19998C16.4369 4.16232 16.4192 4.12547 16.3997 4.08958C16.3803 4.0537 16.3591 4.01883 16.3361 3.98508C16.3132 3.95134 16.2886 3.91877 16.2624 3.8875C16.2362 3.85623 16.2086 3.82629 16.1795 3.7978C16.1503 3.76932 16.1198 3.74234 16.088 3.71694C16.0562 3.69154 16.0231 3.66776 15.9889 3.64569C15.9547 3.62359 15.9195 3.60323 15.8833 3.58469C15.8471 3.56613 15.81 3.54941 15.7722 3.53458C15.7343 3.51978 15.6958 3.50688 15.6566 3.49595C15.6175 3.48501 15.5779 3.47605 15.5378 3.4691C15.4978 3.46217 15.4575 3.45725 15.417 3.45436C15.3883 3.45232 15.3596 3.45129 15.3308 3.45129V3.45123Z" fill="url(#paint1_radial_2_22)"/>
<path id="Vector_3" d="M9.03878 0.0181917C8.4825 0.0172947 7.98606 0.019601 7.54011 0.0258802L6.34451 0.0579166C5.99032 0.0732942 5.67738 0.0933476 5.39649 0.119297C5.25604 0.13224 5.12354 0.14672 4.99795 0.162675C4.87845 0.177737 4.75927 0.195276 4.64049 0.21528C4.5274 0.234501 4.42008 0.25526 4.31718 0.277814C4.21428 0.300367 4.11599 0.324716 4.02116 0.350858C3.92846 0.376421 3.83648 0.404539 3.74533 0.435178C3.65601 0.465293 3.56887 0.497201 3.48282 0.531288C3.31072 0.599462 3.14285 0.675963 2.96998 0.761693C2.83696 0.827688 2.71407 0.894516 2.59733 0.965253C2.48059 1.03599 2.37 1.1107 2.26172 1.19207C2.1502 1.27628 2.04272 1.3657 1.93962 1.46003C1.83185 1.55819 1.72177 1.66615 1.6074 1.7868C1.46369 1.93756 1.33881 2.07814 1.22796 2.21609C1.17254 2.28503 1.12064 2.3532 1.07175 2.42176C1.0234 2.48933 0.977186 2.55839 0.933162 2.62884C0.889593 2.69868 0.84833 2.76981 0.808861 2.84298C0.768776 2.91741 0.730893 2.993 0.695259 3.06967C0.622344 3.22626 0.554299 3.3949 0.486381 3.58315C0.435995 3.72232 0.390877 3.86333 0.351123 4.0059C0.310565 4.1516 0.274492 4.30403 0.242327 4.46889C0.210162 4.63375 0.182098 4.81104 0.15743 5.00711C0.130848 5.22202 0.109612 5.43757 0.0937418 5.65354C0.0758013 5.89099 0.0609364 6.15228 0.0487625 6.44311L0.0199298 7.4101L0.00442406 8.58885L-6.10352e-05 10.0136L0.0130739 12.0856L0.0540806 13.6554L0.0856686 14.2685L0.125138 14.7766C0.13779 14.9136 0.15362 15.0502 0.172616 15.1864C0.189916 15.3074 0.208497 15.4133 0.228487 15.5049C0.26905 15.6912 0.317015 15.8758 0.372267 16.0582C0.425171 16.2329 0.48567 16.4052 0.553594 16.5747C0.620358 16.7406 0.693401 16.9007 0.772852 17.0547C0.852302 17.2087 0.93816 17.3567 1.03042 17.4989C1.12269 17.6411 1.22136 17.7774 1.3267 17.9079C1.43191 18.0385 1.54383 18.1635 1.66199 18.2824C1.78034 18.4016 1.90515 18.515 2.03669 18.6227C2.16979 18.7317 2.30814 18.8342 2.45124 18.9297C2.58407 19.0185 2.71548 19.0998 2.84786 19.1744C2.98023 19.2491 3.11376 19.3168 3.251 19.3784C3.38825 19.4399 3.52895 19.4954 3.67594 19.5452C3.82292 19.5951 3.97605 19.6394 4.1379 19.6787C4.29975 19.7181 4.47108 19.7526 4.65241 19.7827C4.83373 19.8128 5.02755 19.8387 5.23464 19.8609C5.44172 19.8831 5.66265 19.9015 5.90004 19.9169C6.13743 19.9323 6.39116 19.9446 6.66379 19.9544C7.08494 19.9697 7.72246 19.9786 8.45764 19.982L10.8376 19.9772L13.0913 19.9456L13.9482 19.9215L14.5065 19.8928C14.6263 19.8831 14.7436 19.8715 14.8567 19.858C14.9699 19.8445 15.0815 19.829 15.1902 19.8115C15.2988 19.7939 15.4051 19.7743 15.5094 19.7525C15.6126 19.7311 15.7153 19.7071 15.8173 19.6806C15.9182 19.655 16.0178 19.6258 16.1163 19.5949C16.2149 19.5639 16.3124 19.5305 16.4094 19.4946C16.5069 19.4585 16.6035 19.42 16.6991 19.3792C16.7954 19.3382 16.8916 19.2944 16.9881 19.2478C17.1363 19.1765 17.2556 19.1169 17.3603 19.0588C17.4589 19.0048 17.5538 18.9443 17.6444 18.8779C17.7339 18.812 17.8228 18.7371 17.9253 18.6426C18.0278 18.5482 18.144 18.4344 18.2878 18.2905C18.4143 18.1641 18.5209 18.0543 18.6128 17.9544C18.7048 17.8545 18.7822 17.7646 18.8502 17.678C18.9149 17.5958 18.9752 17.5102 19.0308 17.4216C19.0851 17.3351 19.1351 17.2452 19.186 17.1456C19.2627 16.9957 19.3308 16.8568 19.3919 16.7229C19.4512 16.5937 19.5053 16.4623 19.5542 16.3289C19.6024 16.1966 19.6441 16.062 19.6793 15.9256C19.7154 15.7853 19.7465 15.6371 19.7734 15.4746C19.8004 15.3122 19.8231 15.1353 19.8428 14.9378C19.8626 14.7404 19.8794 14.5221 19.8941 14.2769L19.9332 13.4538L19.9668 12.4301L19.9907 11.2896L19.9999 10.0971L19.9785 7.75488L19.9499 6.70581L19.9108 5.80507L19.8621 5.10283C19.8444 4.90741 19.8253 4.75351 19.8051 4.64945C19.7827 4.53448 19.7577 4.42004 19.73 4.30621C19.7031 4.19546 19.6735 4.08537 19.6413 3.97604C19.6098 3.86953 19.5757 3.76384 19.5389 3.65908C19.5025 3.5556 19.4639 3.4543 19.4235 3.35518C19.3832 3.25606 19.3395 3.15924 19.294 3.06448C19.2485 2.96971 19.2008 2.87726 19.1508 2.78691C19.1007 2.69657 19.0486 2.60847 18.9941 2.52255C18.9395 2.43663 18.8828 2.35288 18.8236 2.27138C18.7648 2.19014 18.7035 2.11076 18.6397 2.03335C18.5763 1.95637 18.5104 1.88141 18.4423 1.80858C18.3742 1.73585 18.3038 1.66529 18.2313 1.59701C18.1587 1.52871 18.0839 1.46259 18.0068 1.39864C17.9293 1.33449 17.8499 1.27276 17.7687 1.21354C17.6865 1.15371 17.6026 1.09641 17.517 1.04169C17.4302 0.986203 17.3418 0.933298 17.2519 0.883048C17.1604 0.831956 17.0674 0.783497 16.9731 0.73773C16.8167 0.661676 16.672 0.594208 16.5299 0.534364C16.3903 0.474972 16.248 0.422223 16.1033 0.376295C15.9579 0.330483 15.8065 0.291206 15.6399 0.257312C15.4733 0.223417 15.2917 0.195161 15.0861 0.171134C14.8804 0.147106 14.6509 0.127692 14.3883 0.111546C14.1257 0.0953997 13.8304 0.0827122 13.4932 0.0724606L12.3472 0.0468318L10.8968 0.0297244L9.03942 0.0183188L9.03878 0.0181917ZM10.0034 1.78033L12.6818 1.79558L13.6923 1.81505C13.9705 1.82287 14.1829 1.83203 14.3074 1.84261C14.4695 1.85625 14.6239 1.87336 14.7716 1.89386C14.9133 1.91344 15.0544 1.93778 15.1945 1.96684C15.329 1.99503 15.4574 2.02707 15.5802 2.06321C15.703 2.09935 15.8203 2.13984 15.9329 2.18463C16.0455 2.22941 16.1531 2.27869 16.2567 2.33264C16.3595 2.38618 16.4594 2.4451 16.556 2.50916C16.6521 2.57291 16.7447 2.6416 16.8347 2.7156C16.9246 2.7896 17.0118 2.86893 17.097 2.95376C17.1869 3.04327 17.2698 3.13445 17.3462 3.2285C17.4224 3.32198 17.4928 3.41995 17.5572 3.52189C17.6223 3.62529 17.681 3.7326 17.7329 3.84322C17.786 3.95599 17.8336 4.07516 17.8764 4.20184C17.9192 4.32851 17.9574 4.46313 17.9911 4.60697C18.0265 4.75947 18.0561 4.91325 18.0799 5.06798C18.1056 5.232 18.1275 5.40692 18.1461 5.59421C18.1646 5.78149 18.18 5.98121 18.1927 6.19489C18.2028 6.36629 18.2117 6.59246 18.2192 6.85959L18.2379 7.77038L18.2523 10.0014L18.2359 12.2303L18.2163 13.1385L18.1894 13.799C18.1707 14.1083 18.1509 14.3683 18.1273 14.5946C18.1155 14.7078 18.1027 14.8125 18.0885 14.9107C18.0751 15.0035 18.0593 15.0959 18.0411 15.1879C18.0244 15.2717 18.0051 15.3551 17.9831 15.4377C17.9621 15.5166 17.9384 15.5948 17.9121 15.6721C17.8856 15.7497 17.8567 15.8265 17.8256 15.9025C17.7927 15.9826 17.758 16.062 17.7215 16.1406C17.689 16.2108 17.6549 16.279 17.6187 16.3455C17.583 16.4112 17.545 16.4758 17.5049 16.539C17.4652 16.6016 17.4236 16.6624 17.38 16.7213C17.3367 16.7799 17.2912 16.837 17.2438 16.8925C17.1965 16.9476 17.1472 17.0011 17.096 17.0526C17.0447 17.1042 16.9915 17.154 16.9364 17.2021C16.8813 17.2501 16.8242 17.2962 16.765 17.3407C16.7059 17.3852 16.6447 17.4278 16.5815 17.4687C16.5182 17.5096 16.453 17.5488 16.3856 17.5862C16.3183 17.6237 16.2488 17.6594 16.1774 17.6934C16.1047 17.728 16.031 17.7603 15.9564 17.7904C15.8793 17.8216 15.8013 17.8505 15.7226 17.8773C15.5624 17.9318 15.3934 17.9798 15.2155 18.0211C15.0302 18.0639 14.8431 18.0989 14.6548 18.1261C14.5824 18.1366 14.416 18.1466 14.1776 18.1558L13.2693 18.181L10.6942 18.2145L7.99894 18.2187L6.94045 18.2074L6.25314 18.186L5.74633 18.1504C5.58896 18.1371 5.44262 18.1224 5.3055 18.1057C5.16839 18.089 5.04069 18.0703 4.92055 18.0493C4.80671 18.0296 4.69355 18.0061 4.58129 17.9788C4.47892 17.9539 4.3776 17.9249 4.27758 17.8918C4.18115 17.8598 4.08895 17.8245 3.99925 17.7858C3.90954 17.747 3.82241 17.7045 3.7361 17.6581C3.64979 17.6117 3.56438 17.5614 3.47801 17.5065C3.41285 17.4651 3.34987 17.4232 3.28925 17.3788C3.22864 17.3344 3.17008 17.2901 3.11369 17.2437C3.05731 17.1973 3.00317 17.1495 2.95095 17.1003C2.89908 17.0513 2.84898 17.0005 2.80076 16.9479C2.75271 16.8955 2.70677 16.8416 2.66268 16.7857C2.61843 16.7296 2.57626 16.6719 2.53627 16.6127C2.49568 16.5526 2.45728 16.4911 2.42113 16.4282C2.38461 16.3647 2.34988 16.2991 2.31688 16.2315C2.28333 16.1625 2.25203 16.0925 2.22302 16.0215C2.19354 15.9492 2.16561 15.8747 2.13934 15.7976C2.0868 15.6435 2.04066 15.4795 2.00055 15.3046C1.96044 15.1297 1.92623 14.9439 1.89727 14.7459C1.86831 14.5479 1.84498 14.338 1.8264 14.1149C1.81269 13.9505 1.8018 13.6946 1.79347 13.3716L1.77604 12.2231L1.78245 9.29532L1.83288 6.49764L1.87132 5.51194L1.8931 5.18613C1.90066 5.09911 1.90848 5.03466 1.91649 4.99596C1.94289 4.86864 1.96948 4.75017 1.99697 4.63926C2.02264 4.53463 2.05121 4.43073 2.08263 4.32768C2.11249 4.23041 2.14395 4.1393 2.17759 4.053C2.21002 3.96939 2.24618 3.88727 2.28594 3.80689C2.32476 3.72872 2.36647 3.65388 2.41177 3.58103C2.45707 3.50818 2.50596 3.43751 2.55927 3.36722C2.61258 3.29693 2.66999 3.22754 2.73246 3.15719C2.79493 3.08684 2.8624 3.01578 2.93557 2.94255C3.02085 2.85678 3.10964 2.77459 3.20173 2.69619C3.28868 2.62221 3.37936 2.55273 3.4734 2.48801C3.56586 2.42394 3.66069 2.36691 3.75942 2.3145C3.85816 2.26209 3.9608 2.21474 4.06877 2.17213C4.17673 2.12952 4.29014 2.0914 4.41028 2.0568C4.53649 2.0214 4.6641 1.99119 4.79279 1.96627C4.92811 1.93974 5.07183 1.91661 5.22528 1.89643C5.37874 1.87624 5.542 1.85882 5.71653 1.84369C5.83827 1.83319 6.04805 1.82383 6.32426 1.81595L7.32957 1.79609L10.0038 1.77975L10.0034 1.78033Z" fill="url(#paint2_radial_2_22)"/>
</g>
<defs>
<radialGradient id="paint0_radial_2_22" cx="0" cy="0" r="1" gradientUnits="userSpaceOnUse" gradientTransform="translate(3.1863 21.4373) rotate(-9.53101) scale(42.2697 25.6575)">
<stop stop-color="#FED576"/>
<stop offset="0.263" stop-color="#F47133"/>
<stop offset="0.609" stop-color="#BC3081"/>
<stop offset="1" stop-color="#4C63D2"/>
</radialGradient>
<radialGradient id="paint1_radial_2_22" cx="0" cy="0" r="1" gradientUnits="userSpaceOnUse" gradientTransform="translate(3.18623 21.4373) rotate(-9.53101) scale(42.2697 25.6575)">
<stop stop-color="#FED576"/>
<stop offset="0.263" stop-color="#F47133"/>
<stop offset="0.609" stop-color="#BC3081"/>
<stop offset="1" stop-color="#4C63D2"/>
</radialGradient>
<radialGradient id="paint2_radial_2_22" cx="0" cy="0" r="1" gradientUnits="userSpaceOnUse" gradientTransform="translate(3.18629 21.4373) rotate(-9.53101) scale(42.2697 25.6575)">
<stop stop-color="#FED576"/>
<stop offset="0.263" stop-color="#F47133"/>
<stop offset="0.609" stop-color="#BC3081"/>
<stop offset="1" stop-color="#4C63D2"/>
</radialGradient>
</defs>
</svg>
