<svg width="20" height="20" viewBox="0 0 20 20" fill="none" xmlns="http://www.w3.org/2000/svg">
<g id="Group 2">
<path id="Vector" d="M0.330845 6.65182H4.48169V19.9817H0.330845V6.65182ZM2.40321 0.0174575C3.72747 0.0174575 4.80381 1.0938 4.80381 2.41805C4.80381 3.74231 3.72747 4.82126 2.40409 4.82126C1.76706 4.81988 1.1565 4.56627 0.705976 4.1159C0.255447 3.66554 0.00161415 3.05508 0 2.41805C-1.87718e-07 2.10258 0.0621794 1.7902 0.182984 1.49878C0.303789 1.20735 0.48085 0.942599 0.704043 0.719649C0.927236 0.496699 1.19218 0.319927 1.48374 0.19944C1.7753 0.0789528 2.08774 0.0171133 2.40321 0.0174575ZM7.07346 6.65182H11.0471V8.47366H11.1021C11.6555 7.42612 13.0069 6.32098 15.0303 6.32098C19.2257 6.32098 20 9.0821 20 12.6708V19.9825H15.8596V13.4983C15.8596 11.9532 15.8317 9.9629 13.707 9.9629C11.5508 9.9629 11.2191 11.6477 11.2191 13.3848V19.979H7.07957V6.64921L7.07346 6.65182Z" fill="#0A66C2"/>
</g>
</svg>
