<svg width="20" height="20" viewBox="0 0 20 20" fill="none" xmlns="http://www.w3.org/2000/svg">
<g id="YouTube logo">
<path id="Vector" d="M19.5634 5.18625C19.4484 4.76206 19.2243 4.37536 18.9135 4.06458C18.6028 3.75379 18.2161 3.52974 17.7919 3.41469C16.2387 2.99062 9.9875 2.99062 9.9875 2.99062C9.9875 2.99062 3.73594 3.00312 2.1825 3.42719C1.75831 3.54224 1.37161 3.76629 1.06083 4.07708C0.750044 4.38786 0.525993 4.77456 0.410938 5.19875C0 6.75219 0 10 0 10C0 10 0 13.2478 0.42375 14.8137C0.538806 15.2379 0.762857 15.6246 1.07364 15.9354C1.38443 16.2462 1.77112 16.4703 2.19531 16.5853C3.74844 17.0094 10 17.0094 10 17.0094C10 17.0094 16.2516 17.0094 17.805 16.5856C18.2292 16.4706 18.6159 16.2465 18.9267 15.9357C19.2375 15.6249 19.4615 15.2382 19.5766 14.8141C20 13.2606 20 10 20 10C20 10 19.9875 6.75219 19.5634 5.18625Z" fill="#FF0000"/>
<path id="Vector_2" d="M7.9975 13.0037L13.1834 10L7.99719 6.99625L7.9975 13.0037Z" fill="white"/>
</g>
</svg>
