<svg width="31" height="30" viewBox="0 0 31 30" fill="none" xmlns="http://www.w3.org/2000/svg">
<g id="Youtube" clip-path="url(#clip0_41_111)">
<path id="Vector" d="M15.5956 3.74805H15.7625C17.3037 3.75367 25.1131 3.80992 27.2187 4.37617C27.8553 4.54899 28.4353 4.88584 28.9009 5.35306C29.3665 5.82029 29.7013 6.40152 29.8719 7.03867C30.0612 7.75117 30.1944 8.6943 30.2844 9.66742L30.3031 9.86242L30.3444 10.3499L30.3594 10.5449C30.4812 12.2587 30.4962 13.8637 30.4981 14.2143V14.3549C30.4962 14.7187 30.4794 16.4324 30.3444 18.2174L30.3294 18.4143L30.3125 18.6093C30.2187 19.6818 30.08 20.7468 29.8719 21.5305C29.7018 22.168 29.3672 22.7495 28.9015 23.2168C28.4359 23.6841 27.8556 24.0207 27.2187 24.193C25.0437 24.778 16.7769 24.8193 15.6312 24.8212H15.365C14.7856 24.8212 12.3894 24.8099 9.87687 24.7237L9.55812 24.7124L9.395 24.7049L9.07437 24.6918L8.75375 24.6787C6.6725 24.5868 4.69062 24.4387 3.7775 24.1912C3.14092 24.019 2.56075 23.6826 2.09511 23.2157C1.62947 22.7487 1.29471 22.1676 1.12437 21.5305C0.91625 20.7487 0.7775 19.6818 0.68375 18.6093L0.66875 18.4124L0.65375 18.2174C0.561214 16.9469 0.509937 15.6737 0.5 14.3999L0.5 14.1693C0.50375 13.7662 0.51875 12.373 0.62 10.8355L0.633125 10.6424L0.63875 10.5449L0.65375 10.3499L0.695 9.86242L0.71375 9.66742C0.80375 8.6943 0.936875 7.7493 1.12625 7.03867C1.2963 6.40126 1.63093 5.81975 2.09659 5.35245C2.56224 4.88515 3.14257 4.54847 3.77937 4.37617C4.6925 4.13242 6.67437 3.98242 8.75562 3.88867L9.07437 3.87555L9.39687 3.8643L9.55812 3.85867L9.87875 3.84555C11.6632 3.78812 13.4484 3.75625 15.2337 3.74992H15.5956V3.74805ZM12.5 9.7668V18.8005L20.2944 14.2855L12.5 9.7668Z" fill="white"/>
</g>
<defs>
<clipPath id="clip0_41_111">
<rect width="30" height="30" fill="white" transform="translate(0.5)"/>
</clipPath>
</defs>
</svg>
