<svg width="20" height="20" viewBox="0 0 20 20" fill="none" xmlns="http://www.w3.org/2000/svg">
<g id="Stars" clip-path="url(#clip0_2_75)">
<path id="Vector" d="M9.5712 7.80875C9.7087 7.39625 10.2912 7.39625 10.4287 7.80875L11.2349 10.23C11.4124 10.7622 11.7114 11.2458 12.1082 11.6425C12.5051 12.0391 12.9888 12.3378 13.5212 12.515L15.9412 13.3212C16.3537 13.4587 16.3537 14.0412 15.9412 14.1787L13.5199 14.985C12.9877 15.1625 12.5041 15.4615 12.1075 15.8583C11.7109 16.2551 11.4121 16.7389 11.2349 17.2712L10.4287 19.6912C10.3991 19.7816 10.3416 19.8602 10.2646 19.916C10.1877 19.9718 10.095 20.0018 9.99995 20.0018C9.90488 20.0018 9.81224 19.9718 9.73525 19.916C9.65826 19.8602 9.60084 19.7816 9.5712 19.6912L8.76495 17.27C8.58761 16.7379 8.2888 16.2544 7.89219 15.8578C7.49558 15.4611 7.01206 15.1623 6.47995 14.985L4.0587 14.1787C3.96837 14.1491 3.88971 14.0917 3.83395 14.0147C3.77818 13.9377 3.74816 13.8451 3.74816 13.75C3.74816 13.6549 3.77818 13.5623 3.83395 13.4853C3.88971 13.4083 3.96837 13.3509 4.0587 13.3212L6.47995 12.515C7.01206 12.3377 7.49558 12.0388 7.89219 11.6422C8.2888 11.2456 8.58761 10.7621 8.76495 10.23L9.5712 7.80875ZM4.74245 1.435C4.76037 1.38087 4.7949 1.33376 4.84113 1.30037C4.88735 1.26698 4.94292 1.24901 4.99995 1.24901C5.05697 1.24901 5.11254 1.26698 5.15877 1.30037C5.20499 1.33376 5.23952 1.38087 5.25745 1.435L5.7412 2.8875C5.95745 3.535 6.46495 4.0425 7.11245 4.25875L8.56495 4.7425C8.61908 4.76042 8.66618 4.79495 8.69957 4.84118C8.73296 4.8874 8.75093 4.94298 8.75093 5C8.75093 5.05702 8.73296 5.11259 8.69957 5.15882C8.66618 5.20504 8.61908 5.23957 8.56495 5.2575L7.11245 5.74125C6.7931 5.84764 6.50293 6.02695 6.26491 6.26497C6.0269 6.50298 5.84759 6.79315 5.7412 7.1125L5.25745 8.565C5.23952 8.61913 5.20499 8.66624 5.15877 8.69962C5.11254 8.73301 5.05697 8.75098 4.99995 8.75098C4.94292 8.75098 4.88735 8.73301 4.84113 8.69962C4.7949 8.66624 4.76037 8.61913 4.74245 8.565L4.2587 7.1125C4.1523 6.79315 3.97299 6.50298 3.73498 6.26497C3.49697 6.02695 3.20679 5.84764 2.88745 5.74125L1.43495 5.2575C1.38081 5.23957 1.33371 5.20504 1.30032 5.15882C1.26693 5.11259 1.24896 5.05702 1.24896 5C1.24896 4.94298 1.26693 4.8874 1.30032 4.84118C1.33371 4.79495 1.38081 4.76042 1.43495 4.7425L2.88745 4.25875C3.20679 4.15235 3.49697 3.97304 3.73498 3.73503C3.97299 3.49702 4.1523 3.20684 4.2587 2.8875L4.74245 1.435ZM13.5787 0.123747C13.591 0.0881554 13.6142 0.0572924 13.6448 0.0354495C13.6755 0.0136066 13.7123 0.0018692 13.7499 0.0018692C13.7876 0.0018692 13.8244 0.0136066 13.855 0.0354495C13.8857 0.0572924 13.9089 0.0881554 13.9212 0.123747L14.2437 1.09125C14.3874 1.52375 14.7262 1.8625 15.1587 2.00625L16.1262 2.32875C16.1618 2.34109 16.1927 2.36421 16.2145 2.3949C16.2363 2.42559 16.2481 2.46233 16.2481 2.5C16.2481 2.53767 16.2363 2.5744 16.2145 2.60509C16.1927 2.63578 16.1618 2.65891 16.1262 2.67125L15.1587 2.99375C14.9456 3.06465 14.7519 3.18427 14.593 3.3431C14.4342 3.50193 14.3146 3.69561 14.2437 3.90875L13.9212 4.87625C13.9089 4.91184 13.8857 4.9427 13.855 4.96455C13.8244 4.98639 13.7876 4.99813 13.7499 4.99813C13.7123 4.99813 13.6755 4.98639 13.6448 4.96455C13.6142 4.9427 13.591 4.91184 13.5787 4.87625L13.2562 3.90875C13.1853 3.69561 13.0657 3.50193 12.9068 3.3431C12.748 3.18427 12.5543 3.06465 12.3412 2.99375L11.3749 2.67125C11.3394 2.65891 11.3085 2.63578 11.2866 2.60509C11.2648 2.5744 11.2531 2.53767 11.2531 2.5C11.2531 2.46233 11.2648 2.42559 11.2866 2.3949C11.3085 2.36421 11.3394 2.34109 11.3749 2.32875L12.3424 2.00625C12.7749 1.8625 13.1137 1.52375 13.2574 1.09125L13.5787 0.124997V0.123747Z" fill="white"/>
</g>
<defs>
<clipPath id="clip0_2_75">
<rect width="20" height="20" fill="white"/>
</clipPath>
</defs>
</svg>
